<?xml version="1.0" standalone="no"?><!DOCTYPE svg PUBLIC "-//W3C//DTD SVG 1.1//EN" "http://www.w3.org/Graphics/SVG/1.1/DTD/svg11.dtd"><svg t="1694484027601" class="icon" viewBox="0 0 1024 1024" version="1.1" xmlns="http://www.w3.org/2000/svg" p-id="5747" xmlns:xlink="http://www.w3.org/1999/xlink" width="200" height="200"><path d="M877.714286 804.571429H182.857143c-14.628571 0-21.942857 0-36.571429 7.314285V109.714286c0-21.942857 14.628571-36.571429 36.571429-36.571429H292.571429v402.285714c0 21.942857 14.628571 36.571429 36.571428 36.571429 7.314286 0 21.942857 0 29.257143-7.314286L438.857143 424.228571l80.457143 80.457143c7.314286 7.314286 14.628571 7.314286 29.257143 7.314286 21.942857 0 36.571429-14.628571 36.571428-36.571429V73.142857h270.628572c14.628571 0 21.942857 7.314286 21.942857 21.942857V804.571429z m0 146.285714H182.857143c-21.942857 0-36.571429-14.628571-36.571429-36.571429s14.628571-36.571429 36.571429-36.571428H877.714286v73.142857zM365.714286 73.142857h146.285714v321.828572l-43.885714-51.2c-7.314286-7.314286-21.942857-7.314286-29.257143-7.314286-7.314286 0-21.942857 0-29.257143 7.314286l-43.885714 51.2V73.142857z m548.571428-73.142857h-731.428571C124.342857 0 73.142857 51.2 73.142857 109.714286v811.885714c0 51.2 51.2 102.4 109.714286 102.4h738.742857c21.942857 0 36.571429-14.628571 36.571429-36.571429V36.571429c-7.314286-21.942857-21.942857-36.571429-43.885715-36.571429z" p-id="5748"></path></svg>